<?xml version="1.0" standalone="no"?>
<!DOCTYPE svg PUBLIC "-//W3C//DTD SVG 20010904//EN"
 "http://www.w3.org/TR/2001/REC-SVG-20010904/DTD/svg10.dtd">
<svg version="1.0" xmlns="http://www.w3.org/2000/svg"
 width="237.000000pt" height="213.000000pt" viewBox="0 0 237.000000 213.000000"
 preserveAspectRatio="xMidYMid meet">

<g transform="translate(0.000000,213.000000) scale(0.100000,-0.100000)"
fill="#000000" stroke="none">
<path d="M606 1784 c-319 -151 -581 -276 -583 -278 -3 -2 54 -133 63 -145 2
-2 35 10 74 28 39 17 72 31 75 31 3 0 5 -299 5 -665 l0 -666 82 3 83 3 3 668
2 667 780 0 780 0 0 -670 0 -670 85 0 85 0 0 665 c0 366 2 665 5 665 3 0 33
-14 66 -31 34 -17 66 -28 73 -26 7 3 26 36 43 75 l31 70 -582 272 c-319 151
-583 274 -586 275 -3 1 -266 -121 -584 -271z"/>
<path d="M570 1005 l0 -145 170 0 170 0 0 145 0 145 -170 0 -170 0 0 -145z"/>
<path d="M570 620 l0 -140 170 0 170 0 0 140 0 140 -170 0 -170 0 0 -140z"/>
<path d="M1020 620 l0 -140 170 0 170 0 0 140 0 140 -170 0 -170 0 0 -140z"/>
<path d="M570 235 l0 -145 170 0 170 0 0 145 0 145 -170 0 -170 0 0 -145z"/>
<path d="M1020 235 l0 -145 170 0 170 0 0 145 0 145 -170 0 -170 0 0 -145z"/>
<path d="M1470 235 l0 -145 170 0 170 0 0 145 0 145 -170 0 -170 0 0 -145z"/>
</g>
</svg>
